<svg width="538" height="125" viewBox="0 0 538 125" fill="none" xmlns="http://www.w3.org/2000/svg">
<path d="M138.873 55V21.4H155.433C159.177 21.4 162.473 22.088 165.321 23.464C168.169 24.808 170.393 26.728 171.993 29.224C173.593 31.72 174.393 34.696 174.393 38.152C174.393 41.64 173.593 44.648 171.993 47.176C170.393 49.672 168.169 51.608 165.321 52.984C162.473 54.328 159.177 55 155.433 55H138.873ZM150.201 46.168H154.953C156.553 46.168 157.945 45.864 159.129 45.256C160.345 44.648 161.289 43.752 161.961 42.568C162.633 41.352 162.969 39.88 162.969 38.152C162.969 36.456 162.633 35.016 161.961 33.832C161.289 32.648 160.345 31.752 159.129 31.144C157.945 30.536 156.553 30.232 154.953 30.232H150.201V46.168ZM178.253 55L192.941 21.4H204.077L218.765 55H207.053L196.205 26.776H200.621L189.773 55H178.253ZM186.989 49.144L189.869 40.984H205.325L208.205 49.144H186.989ZM233.051 55L218.843 21.4H231.035L242.603 49.768H235.355L247.259 21.4H258.395L244.187 55H233.051ZM263.362 55V21.4H274.69V55H263.362ZM283.983 55V21.4H300.543C304.287 21.4 307.583 22.088 310.431 23.464C313.279 24.808 315.503 26.728 317.103 29.224C318.703 31.72 319.503 34.696 319.503 38.152C319.503 41.64 318.703 44.648 317.103 47.176C315.503 49.672 313.279 51.608 310.431 52.984C307.583 54.328 304.287 55 300.543 55H283.983ZM295.311 46.168H300.063C301.663 46.168 303.055 45.864 304.239 45.256C305.455 44.648 306.399 43.752 307.071 42.568C307.743 41.352 308.079 39.88 308.079 38.152C308.079 36.456 307.743 35.016 307.071 33.832C306.399 32.648 305.455 31.752 304.239 31.144C303.055 30.536 301.663 30.232 300.063 30.232H295.311V46.168Z" fill="#28293D"/>
<path d="M327.479 55V21.4H338.807V46.216H353.975V55H327.479ZM378.092 55.768C375.372 55.768 372.844 55.336 370.508 54.472C368.204 53.608 366.204 52.392 364.508 50.824C362.812 49.224 361.484 47.352 360.524 45.208C359.596 43.064 359.132 40.728 359.132 38.2C359.132 35.64 359.596 33.304 360.524 31.192C361.484 29.048 362.812 27.192 364.508 25.624C366.204 24.024 368.204 22.792 370.508 21.928C372.844 21.064 375.372 20.632 378.092 20.632C380.844 20.632 383.372 21.064 385.676 21.928C387.98 22.792 389.98 24.024 391.676 25.624C393.372 27.192 394.684 29.048 395.612 31.192C396.572 33.304 397.052 35.64 397.052 38.2C397.052 40.728 396.572 43.064 395.612 45.208C394.684 47.352 393.372 49.224 391.676 50.824C389.98 52.392 387.98 53.608 385.676 54.472C383.372 55.336 380.844 55.768 378.092 55.768ZM378.092 46.6C379.148 46.6 380.124 46.408 381.02 46.024C381.948 45.64 382.748 45.096 383.42 44.392C384.124 43.656 384.668 42.776 385.052 41.752C385.436 40.696 385.628 39.512 385.628 38.2C385.628 36.888 385.436 35.72 385.052 34.696C384.668 33.64 384.124 32.76 383.42 32.056C382.748 31.32 381.948 30.76 381.02 30.376C380.124 29.992 379.148 29.8 378.092 29.8C377.036 29.8 376.044 29.992 375.116 30.376C374.22 30.76 373.42 31.32 372.716 32.056C372.044 32.76 371.516 33.64 371.132 34.696C370.748 35.72 370.556 36.888 370.556 38.2C370.556 39.512 370.748 40.696 371.132 41.752C371.516 42.776 372.044 43.656 372.716 44.392C373.42 45.096 374.22 45.64 375.116 46.024C376.044 46.408 377.036 46.6 378.092 46.6ZM405.003 55V21.4H421.179C424.315 21.4 427.019 21.912 429.291 22.936C431.595 23.96 433.371 25.432 434.619 27.352C435.867 29.24 436.491 31.48 436.491 34.072C436.491 36.664 435.867 38.904 434.619 40.792C433.371 42.68 431.595 44.152 429.291 45.208C427.019 46.232 424.315 46.744 421.179 46.744H411.291L416.331 41.896V55H405.003ZM416.331 43.144L411.291 38.008H420.459C422.027 38.008 423.179 37.656 423.915 36.952C424.683 36.248 425.067 35.288 425.067 34.072C425.067 32.856 424.683 31.896 423.915 31.192C423.179 30.488 422.027 30.136 420.459 30.136H411.291L416.331 25V43.144ZM454.414 33.88H469.39V42.04H454.414V33.88ZM455.182 46.456H471.982V55H444.046V21.4H471.358V29.944H455.182V46.456ZM478.983 55V48.04L497.703 26.248L499.095 30.184H479.463V21.4H509.079V28.36L490.359 50.152L488.967 46.216H509.847V55H478.983Z" fill="#6950BE"/>
<path d="M142.332 97L136.668 80.2H138.492L143.796 96.016H142.884L148.356 80.2H149.988L155.388 96.016H154.524L159.876 80.2H161.58L155.916 97H154.044L148.884 82H149.364L144.18 97H142.332ZM168.34 87.712H177.22V89.224H168.34V87.712ZM168.532 95.464H178.636V97H166.756V80.2H178.276V81.736H168.532V95.464ZM184.731 97V80.2H191.979C193.851 80.2 195.299 80.576 196.323 81.328C197.363 82.08 197.883 83.144 197.883 84.52C197.883 85.432 197.667 86.2 197.235 86.824C196.819 87.448 196.243 87.92 195.507 88.24C194.787 88.56 193.995 88.72 193.131 88.72L193.539 88.144C194.611 88.144 195.531 88.312 196.299 88.648C197.083 88.968 197.691 89.456 198.123 90.112C198.555 90.752 198.771 91.552 198.771 92.512C198.771 93.936 198.243 95.04 197.187 95.824C196.147 96.608 194.571 97 192.459 97H184.731ZM186.507 95.536H192.435C193.907 95.536 195.035 95.288 195.819 94.792C196.603 94.28 196.995 93.472 196.995 92.368C196.995 91.28 196.603 90.488 195.819 89.992C195.035 89.48 193.907 89.224 192.435 89.224H186.315V87.76H191.859C193.203 87.76 194.243 87.504 194.979 86.992C195.731 86.48 196.107 85.72 196.107 84.712C196.107 83.688 195.731 82.928 194.979 82.432C194.243 81.92 193.203 81.664 191.859 81.664H186.507V95.536ZM212.946 97V80.2H219.786C221.578 80.2 223.146 80.56 224.49 81.28C225.85 81.984 226.906 82.968 227.658 84.232C228.41 85.496 228.786 86.952 228.786 88.6C228.786 90.248 228.41 91.704 227.658 92.968C226.906 94.232 225.85 95.224 224.49 95.944C223.146 96.648 221.578 97 219.786 97H212.946ZM214.722 95.464H219.69C221.178 95.464 222.466 95.176 223.554 94.6C224.658 94.008 225.514 93.2 226.122 92.176C226.73 91.136 227.034 89.944 227.034 88.6C227.034 87.24 226.73 86.048 226.122 85.024C225.514 84 224.658 83.2 223.554 82.624C222.466 82.032 221.178 81.736 219.69 81.736H214.722V95.464ZM236.278 87.712H245.158V89.224H236.278V87.712ZM236.47 95.464H246.574V97H234.694V80.2H246.214V81.736H236.47V95.464ZM257.21 97L249.77 80.2H251.69L258.65 96.016H257.594L264.602 80.2H266.402L258.962 97H257.21ZM272.344 87.712H281.224V89.224H272.344V87.712ZM272.536 95.464H282.64V97H270.76V80.2H282.28V81.736H272.536V95.464ZM288.735 97V80.2H290.511V95.464H299.919V97H288.735ZM311.804 97.144C310.54 97.144 309.364 96.936 308.276 96.52C307.204 96.088 306.268 95.488 305.468 94.72C304.684 93.936 304.068 93.032 303.62 92.008C303.188 90.968 302.972 89.832 302.972 88.6C302.972 87.368 303.188 86.24 303.62 85.216C304.068 84.176 304.684 83.272 305.468 82.504C306.268 81.72 307.204 81.12 308.276 80.704C309.348 80.272 310.524 80.056 311.804 80.056C313.068 80.056 314.236 80.272 315.308 80.704C316.38 81.12 317.308 81.712 318.092 82.48C318.892 83.248 319.508 84.152 319.94 85.192C320.388 86.232 320.612 87.368 320.612 88.6C320.612 89.832 320.388 90.968 319.94 92.008C319.508 93.048 318.892 93.952 318.092 94.72C317.308 95.488 316.38 96.088 315.308 96.52C314.236 96.936 313.068 97.144 311.804 97.144ZM311.804 95.56C312.812 95.56 313.74 95.392 314.588 95.056C315.452 94.704 316.196 94.216 316.82 93.592C317.46 92.952 317.956 92.216 318.308 91.384C318.66 90.536 318.836 89.608 318.836 88.6C318.836 87.592 318.66 86.672 318.308 85.84C317.956 84.992 317.46 84.256 316.82 83.632C316.196 82.992 315.452 82.504 314.588 82.168C313.74 81.816 312.812 81.64 311.804 81.64C310.796 81.64 309.86 81.816 308.996 82.168C308.132 82.504 307.38 82.992 306.74 83.632C306.116 84.256 305.62 84.992 305.252 85.84C304.9 86.672 304.724 87.592 304.724 88.6C304.724 89.592 304.9 90.512 305.252 91.36C305.62 92.208 306.116 92.952 306.74 93.592C307.38 94.216 308.132 94.704 308.996 95.056C309.86 95.392 310.796 95.56 311.804 95.56ZM326.513 97V80.2H332.801C334.225 80.2 335.449 80.432 336.473 80.896C337.497 81.344 338.281 82 338.825 82.864C339.385 83.712 339.665 84.744 339.665 85.96C339.665 87.144 339.385 88.168 338.825 89.032C338.281 89.88 337.497 90.536 336.473 91C335.449 91.464 334.225 91.696 332.801 91.696H327.497L328.289 90.856V97H326.513ZM328.289 91L327.497 90.136H332.753C334.433 90.136 335.705 89.776 336.569 89.056C337.449 88.32 337.889 87.288 337.889 85.96C337.889 84.616 337.449 83.576 336.569 82.84C335.705 82.104 334.433 81.736 332.753 81.736H327.497L328.289 80.896V91ZM347.009 87.712H355.889V89.224H347.009V87.712ZM347.201 95.464H357.305V97H345.425V80.2H356.945V81.736H347.201V95.464ZM363.4 97V80.2H369.688C371.112 80.2 372.336 80.432 373.36 80.896C374.384 81.344 375.168 82 375.712 82.864C376.272 83.712 376.552 84.744 376.552 85.96C376.552 87.144 376.272 88.168 375.712 89.032C375.168 89.88 374.384 90.536 373.36 91C372.336 91.448 371.112 91.672 369.688 91.672H364.384L365.176 90.856V97H363.4ZM374.872 97L370.552 90.904H372.472L376.816 97H374.872ZM365.176 91L364.384 90.16H369.64C371.32 90.16 372.592 89.792 373.456 89.056C374.336 88.32 374.776 87.288 374.776 85.96C374.776 84.616 374.336 83.576 373.456 82.84C372.592 82.104 371.32 81.736 369.64 81.736H364.384L365.176 80.896V91Z" fill="#28293D"/>
<path d="M42.5922 41.6771L57.7049 51.2383V124.704L42.5922 115.061L15.1627 97.7368L0.0500565 88.0939V14.7095L15.1627 24.2708V78.2058L42.5922 95.5304V41.6771Z" fill="#6950BE"/>
<path d="M15.2383 4.90318L30.5777 14.7095L15.1627 24.2708L0.050063 14.7095L15.2383 4.90318Z" fill="#B5A2F6"/>
<path d="M57.8306 31.7919L73.1699 41.5982L57.7049 51.2383L42.5922 41.6771L57.8306 31.7919Z" fill="#B5A2F6"/>
<path d="M100.952 4.66467L116.291 14.471L100.826 24.1111L85.7135 14.5499L100.952 4.66467Z" fill="#B5A2F6"/>
<path d="M85.739 14.5461L100.852 24.1073V77.8789L72.9687 95.4487V76.2445L85.5878 68.3994L85.739 14.5461Z" fill="#6950BE"/>
</svg>
