<svg width="533" height="126" viewBox="0 0 533 126" fill="none" xmlns="http://www.w3.org/2000/svg">
<path d="M138.736 60V26.4H155.296C159.04 26.4 162.336 27.088 165.184 28.464C168.032 29.808 170.256 31.728 171.856 34.224C173.456 36.72 174.256 39.696 174.256 43.152C174.256 46.64 173.456 49.648 171.856 52.176C170.256 54.672 168.032 56.608 165.184 57.984C162.336 59.328 159.04 60 155.296 60H138.736ZM150.064 51.168H154.816C156.416 51.168 157.808 50.864 158.992 50.256C160.208 49.648 161.152 48.752 161.824 47.568C162.496 46.352 162.832 44.88 162.832 43.152C162.832 41.456 162.496 40.016 161.824 38.832C161.152 37.648 160.208 36.752 158.992 36.144C157.808 35.536 156.416 35.232 154.816 35.232H150.064V51.168ZM178.116 60L192.804 26.4H203.94L218.628 60H206.916L196.068 31.776H200.484L189.636 60H178.116ZM186.852 54.144L189.732 45.984H205.188L208.068 54.144H186.852ZM232.914 60L218.706 26.4H230.898L242.466 54.768H235.218L247.122 26.4H258.258L244.05 60H232.914ZM263.225 60V26.4H274.553V60H263.225ZM283.846 60V26.4H300.406C304.15 26.4 307.446 27.088 310.294 28.464C313.142 29.808 315.366 31.728 316.966 34.224C318.566 36.72 319.366 39.696 319.366 43.152C319.366 46.64 318.566 49.648 316.966 52.176C315.366 54.672 313.142 56.608 310.294 57.984C307.446 59.328 304.15 60 300.406 60H283.846ZM295.174 51.168H299.926C301.526 51.168 302.918 50.864 304.102 50.256C305.318 49.648 306.262 48.752 306.934 47.568C307.606 46.352 307.942 44.88 307.942 43.152C307.942 41.456 307.606 40.016 306.934 38.832C306.262 37.648 305.318 36.752 304.102 36.144C302.918 35.536 301.526 35.232 299.926 35.232H295.174V51.168Z" fill="white"/>
<path d="M327.342 60V26.4H338.67V51.216H353.838V60H327.342ZM377.955 60.768C375.235 60.768 372.707 60.336 370.371 59.472C368.067 58.608 366.067 57.392 364.371 55.824C362.675 54.224 361.347 52.352 360.387 50.208C359.459 48.064 358.995 45.728 358.995 43.2C358.995 40.64 359.459 38.304 360.387 36.192C361.347 34.048 362.675 32.192 364.371 30.624C366.067 29.024 368.067 27.792 370.371 26.928C372.707 26.064 375.235 25.632 377.955 25.632C380.707 25.632 383.235 26.064 385.539 26.928C387.843 27.792 389.843 29.024 391.539 30.624C393.235 32.192 394.547 34.048 395.475 36.192C396.435 38.304 396.915 40.64 396.915 43.2C396.915 45.728 396.435 48.064 395.475 50.208C394.547 52.352 393.235 54.224 391.539 55.824C389.843 57.392 387.843 58.608 385.539 59.472C383.235 60.336 380.707 60.768 377.955 60.768ZM377.955 51.6C379.011 51.6 379.987 51.408 380.883 51.024C381.811 50.64 382.611 50.096 383.283 49.392C383.987 48.656 384.531 47.776 384.915 46.752C385.299 45.696 385.491 44.512 385.491 43.2C385.491 41.888 385.299 40.72 384.915 39.696C384.531 38.64 383.987 37.76 383.283 37.056C382.611 36.32 381.811 35.76 380.883 35.376C379.987 34.992 379.011 34.8 377.955 34.8C376.899 34.8 375.907 34.992 374.979 35.376C374.083 35.76 373.283 36.32 372.579 37.056C371.907 37.76 371.379 38.64 370.995 39.696C370.611 40.72 370.419 41.888 370.419 43.2C370.419 44.512 370.611 45.696 370.995 46.752C371.379 47.776 371.907 48.656 372.579 49.392C373.283 50.096 374.083 50.64 374.979 51.024C375.907 51.408 376.899 51.6 377.955 51.6ZM404.866 60V26.4H421.042C424.178 26.4 426.882 26.912 429.154 27.936C431.458 28.96 433.234 30.432 434.482 32.352C435.73 34.24 436.354 36.48 436.354 39.072C436.354 41.664 435.73 43.904 434.482 45.792C433.234 47.68 431.458 49.152 429.154 50.208C426.882 51.232 424.178 51.744 421.042 51.744H411.154L416.194 46.896V60H404.866ZM416.194 48.144L411.154 43.008H420.322C421.89 43.008 423.042 42.656 423.778 41.952C424.546 41.248 424.93 40.288 424.93 39.072C424.93 37.856 424.546 36.896 423.778 36.192C423.042 35.488 421.89 35.136 420.322 35.136H411.154L416.194 30V48.144ZM454.277 38.88H469.253V47.04H454.277V38.88ZM455.045 51.456H471.845V60H443.909V26.4H471.221V34.944H455.045V51.456ZM478.846 60V53.04L497.566 31.248L498.958 35.184H479.326V26.4H508.942V33.36L490.222 55.152L488.83 51.216H509.71V60H478.846Z" fill="#553786"/>
<path d="M142.552 102L136.888 85.2H138.712L144.016 101.016H143.104L148.576 85.2H150.208L155.608 101.016H154.744L160.096 85.2H161.8L156.136 102H154.264L149.104 87H149.584L144.4 102H142.552ZM168.56 92.712H177.44V94.224H168.56V92.712ZM168.752 100.464H178.856V102H166.976V85.2H178.496V86.736H168.752V100.464ZM184.951 102V85.2H192.199C194.071 85.2 195.519 85.576 196.543 86.328C197.583 87.08 198.103 88.144 198.103 89.52C198.103 90.432 197.887 91.2 197.455 91.824C197.039 92.448 196.463 92.92 195.727 93.24C195.007 93.56 194.215 93.72 193.351 93.72L193.759 93.144C194.831 93.144 195.751 93.312 196.519 93.648C197.303 93.968 197.911 94.456 198.343 95.112C198.775 95.752 198.991 96.552 198.991 97.512C198.991 98.936 198.463 100.04 197.407 100.824C196.367 101.608 194.791 102 192.679 102H184.951ZM186.727 100.536H192.655C194.127 100.536 195.255 100.288 196.039 99.792C196.823 99.28 197.215 98.472 197.215 97.368C197.215 96.28 196.823 95.488 196.039 94.992C195.255 94.48 194.127 94.224 192.655 94.224H186.535V92.76H192.079C193.423 92.76 194.463 92.504 195.199 91.992C195.951 91.48 196.327 90.72 196.327 89.712C196.327 88.688 195.951 87.928 195.199 87.432C194.463 86.92 193.423 86.664 192.079 86.664H186.727V100.536ZM213.166 102V85.2H220.006C221.798 85.2 223.366 85.56 224.71 86.28C226.07 86.984 227.126 87.968 227.878 89.232C228.63 90.496 229.006 91.952 229.006 93.6C229.006 95.248 228.63 96.704 227.878 97.968C227.126 99.232 226.07 100.224 224.71 100.944C223.366 101.648 221.798 102 220.006 102H213.166ZM214.942 100.464H219.91C221.398 100.464 222.686 100.176 223.774 99.6C224.878 99.008 225.734 98.2 226.342 97.176C226.95 96.136 227.254 94.944 227.254 93.6C227.254 92.24 226.95 91.048 226.342 90.024C225.734 89 224.878 88.2 223.774 87.624C222.686 87.032 221.398 86.736 219.91 86.736H214.942V100.464ZM236.498 92.712H245.378V94.224H236.498V92.712ZM236.69 100.464H246.794V102H234.914V85.2H246.434V86.736H236.69V100.464ZM257.43 102L249.99 85.2H251.91L258.87 101.016H257.814L264.822 85.2H266.622L259.182 102H257.43ZM272.565 92.712H281.445V94.224H272.565V92.712ZM272.757 100.464H282.861V102H270.981V85.2H282.501V86.736H272.757V100.464ZM288.955 102V85.2H290.731V100.464H300.139V102H288.955ZM312.024 102.144C310.76 102.144 309.584 101.936 308.496 101.52C307.424 101.088 306.488 100.488 305.688 99.72C304.904 98.936 304.288 98.032 303.84 97.008C303.408 95.968 303.192 94.832 303.192 93.6C303.192 92.368 303.408 91.24 303.84 90.216C304.288 89.176 304.904 88.272 305.688 87.504C306.488 86.72 307.424 86.12 308.496 85.704C309.568 85.272 310.744 85.056 312.024 85.056C313.288 85.056 314.456 85.272 315.528 85.704C316.6 86.12 317.528 86.712 318.312 87.48C319.112 88.248 319.728 89.152 320.16 90.192C320.608 91.232 320.832 92.368 320.832 93.6C320.832 94.832 320.608 95.968 320.16 97.008C319.728 98.048 319.112 98.952 318.312 99.72C317.528 100.488 316.6 101.088 315.528 101.52C314.456 101.936 313.288 102.144 312.024 102.144ZM312.024 100.56C313.032 100.56 313.96 100.392 314.808 100.056C315.672 99.704 316.416 99.216 317.04 98.592C317.68 97.952 318.176 97.216 318.528 96.384C318.88 95.536 319.056 94.608 319.056 93.6C319.056 92.592 318.88 91.672 318.528 90.84C318.176 89.992 317.68 89.256 317.04 88.632C316.416 87.992 315.672 87.504 314.808 87.168C313.96 86.816 313.032 86.64 312.024 86.64C311.016 86.64 310.08 86.816 309.216 87.168C308.352 87.504 307.6 87.992 306.96 88.632C306.336 89.256 305.84 89.992 305.472 90.84C305.12 91.672 304.944 92.592 304.944 93.6C304.944 94.592 305.12 95.512 305.472 96.36C305.84 97.208 306.336 97.952 306.96 98.592C307.6 99.216 308.352 99.704 309.216 100.056C310.08 100.392 311.016 100.56 312.024 100.56ZM326.733 102V85.2H333.021C334.445 85.2 335.669 85.432 336.693 85.896C337.717 86.344 338.501 87 339.045 87.864C339.605 88.712 339.885 89.744 339.885 90.96C339.885 92.144 339.605 93.168 339.045 94.032C338.501 94.88 337.717 95.536 336.693 96C335.669 96.464 334.445 96.696 333.021 96.696H327.717L328.509 95.856V102H326.733ZM328.509 96L327.717 95.136H332.973C334.653 95.136 335.925 94.776 336.789 94.056C337.669 93.32 338.109 92.288 338.109 90.96C338.109 89.616 337.669 88.576 336.789 87.84C335.925 87.104 334.653 86.736 332.973 86.736H327.717L328.509 85.896V96ZM347.229 92.712H356.109V94.224H347.229V92.712ZM347.421 100.464H357.525V102H345.645V85.2H357.165V86.736H347.421V100.464ZM363.62 102V85.2H369.908C371.332 85.2 372.556 85.432 373.58 85.896C374.604 86.344 375.388 87 375.932 87.864C376.492 88.712 376.772 89.744 376.772 90.96C376.772 92.144 376.492 93.168 375.932 94.032C375.388 94.88 374.604 95.536 373.58 96C372.556 96.448 371.332 96.672 369.908 96.672H364.604L365.396 95.856V102H363.62ZM375.092 102L370.772 95.904H372.692L377.036 102H375.092ZM365.396 96L364.604 95.16H369.86C371.54 95.16 372.812 94.792 373.676 94.056C374.556 93.32 374.996 92.288 374.996 90.96C374.996 89.616 374.556 88.576 373.676 87.84C372.812 87.104 371.54 86.736 369.86 86.736H364.604L365.396 85.896V96Z" fill="white"/>
<path d="M42.7655 42.5041L57.8782 52.0654V125.531L42.7655 115.888L15.336 98.5639L0.223343 88.9209V15.5366L15.336 25.0978V79.0329L42.7655 96.3574V42.5041Z" fill="#553786"/>
<path d="M15.4116 5.73026L30.751 15.5366L15.336 25.0978L0.223349 15.5366L15.4116 5.73026Z" fill="#B5A2F6"/>
<path d="M58.0038 32.619L73.3432 42.4253L57.8782 52.0654L42.7655 42.5042L58.0038 32.619Z" fill="#B5A2F6"/>
<path d="M101.125 5.49175L116.464 15.2981L100.999 24.9382L85.8867 15.3769L101.125 5.49175Z" fill="#B5A2F6"/>
<path d="M85.9122 15.3732L101.025 24.9344V78.706L73.142 96.2757V77.0716L85.7611 69.2265L85.9122 15.3732Z" fill="#553786"/>
</svg>
